<mxfile host="app.diagrams.net" modified="2021-03-19T09:32:41.911Z" agent="5.0 (Windows NT 10.0; Win64; x64) AppleWebKit/537.36 (KHTML, like Gecko) Chrome/89.0.4389.90 Safari/537.36" etag="CZD9-gPP420xEhZqaN6k" version="14.4.8" type="github">
  <diagram id="2f404044-711c-603c-8f00-f6bb4c023d3c" name="Page-1">
    <mxGraphModel dx="1080" dy="932" grid="1" gridSize="10" guides="1" tooltips="1" connect="1" arrows="1" fold="1" page="1" pageScale="1" pageWidth="1169" pageHeight="827" background="#ffffff" math="0" shadow="0">
      <root>
        <mxCell id="0" />
        <mxCell id="1" parent="0" />
        <mxCell id="63" value="" style="swimlane;shadow=0;strokeColor=#4277BB;fillColor=#ffffff;fontColor=none;align=right;startSize=0;collapsible=0;noLabel=1;strokeWidth=3;" parent="1" vertex="1">
          <mxGeometry x="70" y="44" width="1003" height="740" as="geometry" />
        </mxCell>
        <mxCell id="239" style="edgeStyle=elbowEdgeStyle;rounded=0;elbow=vertical;html=1;entryX=0;entryY=0.5;labelBackgroundColor=#ffffff;startArrow=none;startFill=0;startSize=4;endArrow=classic;endFill=1;endSize=4;jettySize=auto;orthogonalLoop=1;strokeColor=#4277BB;strokeWidth=2;fontSize=12;fontColor=#4277BB;exitX=1;exitY=0.5;entryDx=0;entryDy=0;exitDx=0;exitDy=0;" parent="63" source="211" target="212" edge="1">
          <mxGeometry relative="1" as="geometry">
            <Array as="points">
              <mxPoint x="187" y="344" />
            </Array>
            <mxPoint x="818" y="396.11799999999994" as="targetPoint" />
          </mxGeometry>
        </mxCell>
        <mxCell id="107" value="CLOUD NETWORK" style="text;html=1;align=left;verticalAlign=middle;fontColor=#4277BB;shadow=0;dashed=0;strokeColor=none;fillColor=none;labelBackgroundColor=none;fontStyle=1;fontSize=16;spacingLeft=5;" parent="63" vertex="1">
          <mxGeometry x="208" y="10" width="190" height="20" as="geometry" />
        </mxCell>
        <mxCell id="207" value="APPLICATION&lt;div&gt;LOGIC&lt;/div&gt;" style="aspect=fixed;perimeter=ellipsePerimeter;html=1;align=center;shadow=0;dashed=0;image;image=img/lib/ibm/applications/application_logic.svg;labelBackgroundColor=#ffffff;strokeColor=#4277BB;strokeWidth=2;fillColor=none;gradientColor=none;fontSize=12;fontColor=#4277BB;spacingTop=3;" parent="63" vertex="1">
          <mxGeometry x="447" y="106" width="60" height="60" as="geometry" />
        </mxCell>
        <mxCell id="211" value="第三方应用" style="aspect=fixed;perimeter=ellipsePerimeter;html=1;align=center;shadow=0;dashed=0;image;image=img/lib/ibm/infrastructure/transformation_connectivity.svg;labelBackgroundColor=#ffffff;strokeColor=#4277BB;strokeWidth=2;fillColor=none;gradientColor=none;fontSize=12;fontColor=#4277BB;spacingTop=3;" parent="63" vertex="1">
          <mxGeometry x="67" y="314" width="60" height="60" as="geometry" />
        </mxCell>
        <mxCell id="212" value="生产者" style="aspect=fixed;perimeter=ellipsePerimeter;html=1;align=center;shadow=0;dashed=0;image;image=img/lib/ibm/miscellaneous/text_to_speech.svg;labelBackgroundColor=#ffffff;strokeColor=#4277BB;strokeWidth=2;fillColor=none;gradientColor=none;fontSize=12;fontColor=#4277BB;spacingTop=3;" parent="63" vertex="1">
          <mxGeometry x="247" y="314" width="60" height="60" as="geometry" />
        </mxCell>
        <mxCell id="sx2ZwVIMUdGC92YIVb8i-241" value="" style="fillColor=#c0f5a9;dashed=0;outlineConnect=0;strokeWidth=2;html=1;align=center;fontSize=8;verticalLabelPosition=bottom;verticalAlign=top;shape=mxgraph.eip.polling_consumer;" vertex="1" parent="63">
          <mxGeometry x="637" y="299" width="150" height="90" as="geometry" />
        </mxCell>
        <mxCell id="sx2ZwVIMUdGC92YIVb8i-242" value="" style="points=[[0,0,0],[0.25,0,0],[0.5,0,0],[0.75,0,0],[1,0,0],[0,1,0],[0.25,1,0],[0.5,1,0],[0.75,1,0],[1,1,0],[0,0.25,0],[0,0.5,0],[0,0.75,0],[1,0.25,0],[1,0.5,0],[1,0.75,0]];outlineConnect=0;fontColor=#232F3E;gradientColor=#F34482;gradientDirection=north;fillColor=#BC1356;strokeColor=#ffffff;dashed=0;verticalLabelPosition=bottom;verticalAlign=top;align=center;html=1;fontSize=12;fontStyle=0;aspect=fixed;shape=mxgraph.aws4.resourceIcon;resIcon=mxgraph.aws4.mq;" vertex="1" parent="63">
          <mxGeometry x="457" y="305" width="78" height="78" as="geometry" />
        </mxCell>
        <mxCell id="sx2ZwVIMUdGC92YIVb8i-247" style="edgeStyle=elbowEdgeStyle;rounded=0;elbow=vertical;html=1;labelBackgroundColor=#ffffff;startArrow=none;startFill=0;startSize=4;endArrow=classic;endFill=1;endSize=4;jettySize=auto;orthogonalLoop=1;strokeColor=#4277BB;strokeWidth=2;fontSize=12;fontColor=#4277BB;exitX=1;exitY=0.5;exitDx=0;exitDy=0;" edge="1" parent="63" source="212" target="sx2ZwVIMUdGC92YIVb8i-242">
          <mxGeometry relative="1" as="geometry">
            <Array as="points">
              <mxPoint x="397" y="344" />
            </Array>
            <mxPoint x="271.41640786499875" y="166.0028157299975" as="sourcePoint" />
            <mxPoint x="437" y="344" as="targetPoint" />
          </mxGeometry>
        </mxCell>
        <mxCell id="sx2ZwVIMUdGC92YIVb8i-249" style="edgeStyle=elbowEdgeStyle;rounded=0;elbow=vertical;html=1;labelBackgroundColor=#ffffff;startArrow=none;startFill=0;startSize=4;endArrow=classic;endFill=1;endSize=4;jettySize=auto;orthogonalLoop=1;strokeColor=#4277BB;strokeWidth=2;fontSize=12;fontColor=#4277BB;entryX=0;entryY=0.5;entryDx=0;entryDy=0;" edge="1" parent="63" target="207">
          <mxGeometry relative="1" as="geometry">
            <Array as="points">
              <mxPoint x="357" y="136" />
            </Array>
            <mxPoint x="277" y="313" as="sourcePoint" />
            <mxPoint x="427" y="313" as="targetPoint" />
          </mxGeometry>
        </mxCell>
        <mxCell id="sx2ZwVIMUdGC92YIVb8i-250" style="edgeStyle=elbowEdgeStyle;rounded=0;elbow=vertical;html=1;labelBackgroundColor=#ffffff;startArrow=none;startFill=0;startSize=4;endArrow=classic;endFill=1;endSize=4;jettySize=auto;orthogonalLoop=1;strokeColor=#4277BB;strokeWidth=2;fontSize=12;fontColor=#4277BB;exitX=0;exitY=0.5;exitDx=0;exitDy=0;exitPerimeter=0;entryX=1;entryY=0.5;entryDx=0;entryDy=0;entryPerimeter=0;" edge="1" parent="63" source="sx2ZwVIMUdGC92YIVb8i-241" target="sx2ZwVIMUdGC92YIVb8i-242">
          <mxGeometry relative="1" as="geometry">
            <Array as="points">
              <mxPoint x="590" y="344" />
            </Array>
            <mxPoint x="510" y="436" as="sourcePoint" />
            <mxPoint x="660" y="436" as="targetPoint" />
          </mxGeometry>
        </mxCell>
      </root>
    </mxGraphModel>
  </diagram>
</mxfile>
